<svg width="18" height="18" viewBox="0 0 18 18" fill="none" xmlns="http://www.w3.org/2000/svg">
<path d="M6.07056 8.91603V8.33235H11.9803V8.91603H6.07056Z" fill="white"/>
<path d="M6.43536 11.5061V9.28083H11.652V11.5061C11.652 12.5941 10.77 13.476 9.68207 13.476H8.40527C7.31732 13.476 6.43536 12.5941 6.43536 11.5061Z" fill="white"/>
<path d="M7.93103 8.00403H6.76368V5.08563C6.76368 4.76328 7.025 4.50195 7.34735 4.50195C7.66971 4.50195 7.93103 4.76328 7.93103 5.08563V8.00403Z" fill="white"/>
<path d="M11.2872 8.00403H10.1198V5.08563C10.1198 4.76328 10.3812 4.50195 10.7035 4.50195C11.0259 4.50195 11.2872 4.76328 11.2872 5.08563V8.00403Z" fill="white"/>
<path d="M9.93759 16.9999C13.9406 16.5471 17.0512 13.1496 17.0512 9.02559C17.0512 4.59318 13.458 1 9.02559 1C4.59318 1 1 4.59318 1 9.02559C1 13.0488 3.96043 16.3807 7.82175 16.9615C8.06495 16.9792 8.98911 16.7958 8.98911 15.7744C8.98911 14.6435 8.98911 14.1328 8.98911 13.3667" stroke="white" stroke-linecap="round" stroke-linejoin="round"/>
<path fill-rule="evenodd" clip-rule="evenodd" d="M8.07693 11.7979C7.99254 11.7979 7.91078 11.8272 7.84558 11.8808C7.78038 11.9344 7.73578 12.0089 7.71937 12.0917C7.70296 12.1744 7.71575 12.2603 7.75558 12.3347C7.79541 12.4091 7.8598 12.4674 7.93779 12.4996C8.01577 12.5319 8.10253 12.5361 8.18327 12.5116C8.26402 12.487 8.33375 12.4352 8.3806 12.3651C8.42745 12.2949 8.44851 12.2106 8.44019 12.1266C8.43188 12.0427 8.3947 11.9642 8.335 11.9045C8.30112 11.8707 8.26088 11.8438 8.2166 11.8255C8.17232 11.8072 8.12485 11.7978 8.07693 11.7979Z" fill="#1F64A5"/>
<path fill-rule="evenodd" clip-rule="evenodd" d="M10.339 10.8493C10.339 11.2647 10.0633 11.6179 9.67959 11.7462L10.072 12.5274H9.30876L8.61062 11.1412H8.61257L8.60888 11.1337H9.41926C9.5814 11.1337 9.71289 11.0063 9.71289 10.8491C9.71289 10.692 9.5814 10.5646 9.41926 10.5646H8.25799L7.93127 9.90088H9.36057C9.90095 9.90088 10.339 10.3256 10.339 10.8493Z" fill="#1F64A5"/>
</svg>
